<?xml version="1.0" standalone="no"?>
<!DOCTYPE svg PUBLIC "-//W3C//DTD SVG 20010904//EN"
 "http://www.w3.org/TR/2001/REC-SVG-20010904/DTD/svg10.dtd">
<svg version="1.0" xmlns="http://www.w3.org/2000/svg"
 width="100.000000pt" height="100.000000pt" viewBox="0 0 100.000000 100.000000"
 preserveAspectRatio="xMidYMid meet">
<metadata>
Created by potrace 1.11, written by Peter Selinger 2001-2013
</metadata>
<g transform="translate(0.000000,100.000000) scale(0.100000,-0.100000)"
fill="#000000" stroke="none">
<path d="M532 897 c-107 -195 -271 -527 -263 -532 6 -3 32 -3 59 1 47 6 50 8
73 57 28 60 68 88 128 89 33 0 41 5 51 28 8 20 8 33 -1 53 -11 23 -8 34 26 97
l37 72 -39 89 c-21 49 -40 89 -43 89 -3 0 -15 -19 -28 -43z"/>
<path d="M618 545 c-18 -38 -20 -49 -10 -63 43 -60 52 -80 52 -123 0 -25 -7
-54 -15 -65 -8 -10 -15 -26 -15 -35 0 -23 32 -49 61 -49 19 0 33 -14 68 -69
42 -68 44 -70 92 -75 27 -3 72 -9 99 -12 28 -3 50 -3 50 0 0 9 -66 117 -164
266 -52 80 -112 173 -133 207 -21 35 -44 63 -51 63 -7 0 -22 -20 -34 -45z"/>
<path d="M475 471 c-73 -30 -89 -136 -29 -192 68 -64 194 -9 194 86 0 82 -87
138 -165 106z"/>
<path d="M300 315 c-21 -23 -31 -25 -101 -25 l-78 0 -55 -71 c-31 -39 -56 -75
-56 -80 0 -13 627 -12 635 1 3 5 -7 29 -23 52 -28 41 -30 42 -80 39 -65 -3
-122 26 -146 75 -20 43 -61 47 -96 9z"/>
</g>
</svg>
